
<svg
xmlns:dc="http://purl.org/dc/elements/1.1/"
xmlns:cc="http://creativecommons.org/ns#"
xmlns:rdf="http://www.w3.org/1999/02/22-rdf-syntax-ns#"
xmlns:svg="http://www.w3.org/2000/svg"
xmlns="http://www.w3.org/2000/svg"
xmlns:sodipodi="http://sodipodi.sourceforge.net/DTD/sodipodi-0.dtd"
xmlns:inkscape="http://www.inkscape.org/namespaces/inkscape"
width="17.92"
height="13.09"
id="svg18419"
version="1.1"
inkscape:version="0.48.1 "
sodipodi:docname="Neues Dokument 7">
<defs
  id="defs18421" />
<sodipodi:namedview
  id="base"
  pagecolor="#ffffff"
  bordercolor="#666666"
  borderopacity="1.0"
  inkscape:pageopacity="0.0"
  inkscape:pageshadow="2"
  inkscape:zoom="41.559612"
  inkscape:cx="8.9600008"
  inkscape:cy="6.5450002"
  inkscape:document-units="px"
  inkscape:current-layer="layer1"
  showgrid="false"
  fit-margin-top="0"
  fit-margin-left="0"
  fit-margin-right="0"
  fit-margin-bottom="0"
  inkscape:window-width="1024"
  inkscape:window-height="678"
  inkscape:window-x="-4"
  inkscape:window-y="-4"
  inkscape:window-maximized="1" />
<metadata
  id="metadata18424">
 <rdf:RDF>
   <cc:Work
      rdf:about="">
     <dc:format>image/svg+xml</dc:format>
     <dc:type
        rdf:resource="http://purl.org/dc/dcmitype/StillImage" />
     <dc:title></dc:title>
   </cc:Work>
 </rdf:RDF>
</metadata>
<g
  inkscape:label="Ebene 1"
  inkscape:groupmode="layer"
  id="layer1"
  transform="translate(-221.65812,-427.43798)">
 <g
    id="g2878"
    transform="matrix(1.25,0,0,-1.25,222.65937,433.98298)">
   <path
      inkscape:connector-curvature="0"
      d="m 0,0 c 0.002,-2.449 2.856,-4.437 6.372,-4.437 3.516,0.011 6.365,1.998 6.362,4.448 C 12.732,2.46 9.879,4.437 6.362,4.437 2.846,4.437 -0.002,2.45 0,0 M 11.654,0.011 C 11.656,-1.891 9.291,-3.438 6.371,-3.438 3.451,-3.438 1.082,-1.901 1.08,0 1.079,1.891 3.444,3.438 6.363,3.438 9.283,3.449 11.652,1.902 11.654,0.011"
      style="fill:#0066b3;fill-opacity:1;fill-rule:nonzero;stroke:none"
      id="path2880" />
 </g>
 <g
    id="g2882"
    transform="matrix(1.25,0,0,-1.25,232.98937,432.68038)">
   <path
      inkscape:connector-curvature="0"
      d="M 0,0 C -0.302,0.183 -0.687,0.269 -1.051,0.204 -1.154,0.183 -1.249,0.151 -1.341,0.097 -1.453,0.032 -1.537,-0.054 -1.613,-0.15 c -0.057,-0.086 -0.089,-0.172 -0.11,-0.269 -0.031,-0.139 -0.023,-0.268 0.011,-0.419 0.094,-0.387 0.509,-0.472 0.83,-0.612 0.056,-0.022 0.113,-0.054 0.14,-0.118 0.033,-0.065 0.027,-0.151 -0.033,-0.204 -0.049,-0.043 -0.121,-0.054 -0.177,-0.065 -0.262,-0.021 -0.531,0.086 -0.758,0.215 l 0.005,-0.677 c 0.117,-0.064 0.216,-0.086 0.331,-0.118 0.46,-0.15 1.02,-0.107 1.334,0.312 0.159,0.214 0.196,0.483 0.108,0.73 -0.047,0.129 -0.125,0.236 -0.244,0.312 -0.099,0.075 -0.197,0.118 -0.305,0.172 -0.157,0.064 -0.348,0.064 -0.464,0.204 -0.027,0.032 -0.029,0.096 -0.013,0.139 0.019,0.054 0.039,0.075 0.09,0.097 0.108,0.043 0.217,0.032 0.329,0.011 0.189,-0.022 0.375,-0.129 0.547,-0.204 L 0,0 m -2.071,0 c -0.301,0.183 -0.686,0.258 -1.05,0.204 -0.103,-0.021 -0.197,-0.064 -0.29,-0.118 -0.112,-0.054 -0.197,-0.14 -0.272,-0.247 -0.057,-0.075 -0.089,-0.161 -0.11,-0.258 -0.031,-0.139 -0.023,-0.279 0.011,-0.419 0.093,-0.387 0.509,-0.483 0.829,-0.612 0.057,-0.022 0.114,-0.054 0.141,-0.118 0.032,-0.065 0.027,-0.151 -0.033,-0.204 -0.05,-0.043 -0.122,-0.065 -0.177,-0.065 -0.263,-0.021 -0.531,0.075 -0.758,0.215 0,-0.011 0.004,-0.688 0.004,-0.677 0.118,-0.064 0.216,-0.086 0.331,-0.129 0.461,-0.139 1.021,-0.107 1.335,0.312 0.159,0.215 0.196,0.483 0.108,0.73 -0.047,0.129 -0.126,0.237 -0.244,0.323 -0.1,0.064 -0.197,0.118 -0.305,0.161 -0.157,0.064 -0.348,0.075 -0.465,0.215 -0.026,0.032 -0.028,0.096 -0.012,0.139 0.018,0.043 0.039,0.075 0.089,0.097 0.109,0.043 0.217,0.021 0.33,0.011 0.19,-0.022 0.376,-0.129 0.548,-0.204 L -2.071,0 M -4.028,0.795 C -4.395,1.01 -4.856,1.074 -5.276,0.946 -5.552,0.86 -5.79,0.688 -5.906,0.419 -5.963,0.301 -5.993,0.161 -5.99,0.022 c 0.007,-0.312 0.213,-0.559 0.471,-0.72 -0.035,-0.043 -0.09,-0.054 -0.139,-0.086 -0.081,-0.054 -0.144,-0.118 -0.203,-0.193 -0.102,-0.119 -0.166,-0.258 -0.182,-0.419 -0.015,-0.14 -0.014,-0.29 0.035,-0.419 0.124,-0.344 0.422,-0.591 0.793,-0.656 0.173,-0.032 0.334,-0.043 0.503,-0.021 0.136,0.011 0.251,0.032 0.38,0.075 0.099,0.022 0.178,0.054 0.27,0.107 0,0.011 -0.095,0.624 -0.092,0.624 -0.253,-0.043 -0.52,-0.151 -0.771,-0.043 -0.153,0.053 -0.201,0.225 -0.176,0.376 0.021,0.139 0.118,0.225 0.235,0.268 0.202,0.075 0.429,0.054 0.642,0.054 l -0.008,0.591 c -0.164,-0.022 -0.343,-0.011 -0.527,0.021 -0.058,0.011 -0.11,0.032 -0.162,0.065 -0.05,0.043 -0.084,0.086 -0.11,0.129 -0.053,0.107 -0.057,0.214 -0.004,0.311 0.187,0.333 0.635,0.194 0.928,0.086 l 0.079,0.623 m 5.414,-1.214 c -0.227,0 -0.377,-0.247 -0.368,-0.709 0.009,-0.462 0.167,-0.709 0.394,-0.709 0.228,0 0.388,0.258 0.379,0.709 -0.008,0.484 -0.177,0.72 -0.405,0.709 M 1.395,0.237 C 2.007,0.247 2.509,-0.086 2.528,-1.106 2.546,-2.095 2.057,-2.492 1.444,-2.503 0.832,-2.514 0.329,-2.17 0.311,-1.149 0.293,-0.15 0.783,0.226 1.395,0.237"
      style="fill:#ed1b2e;fill-opacity:1;fill-rule:nonzero;stroke:none"
      id="path2884" />
 </g>
</g>
</svg>